<?xml version="1.0" encoding="UTF-8"?>
<svg version="1.1" xmlns="http://www.w3.org/2000/svg" width="100" height="100">
<path d="M0 0 C0.73863281 0.32871094 1.47726563 0.65742187 2.23828125 0.99609375 C14.68935006 7.21087594 23.27626177 17.66927998 28.4375 30.4375 C32.09981065 42.5976397 31.672115 57.58903924 26 69 C18.66074187 82.58852742 8.52991028 91.71431699 -6.3984375 96.3046875 C-21.8722514 99.29203986 -36.43753945 97.17110086 -49.7578125 88.6171875 C-60.08355888 81.16969795 -67.67733034 69.54791361 -70 57 C-71.69323409 39.62675133 -68.54508929 25.70624158 -57.34375 11.96875 C-43.71489807 -2.68869452 -18.45464756 -8.55215375 0 0 Z " fill="#FDFDFD" transform="translate(70,3)"/>
<path d="M0 0 C4.75389107 2.61604657 8.44795424 6.58340848 10.875 11.4375 C11.74721419 20.73158561 10.69735593 26.71489808 4.8515625 33.9375 C-5.77213015 46.12030113 -5.77213015 46.12030113 -12.625 48.8125 C-16.64316853 50.67807825 -18.3455802 52.68550294 -21.109375 56.046875 C-35.13570186 72.68275105 -35.13570186 72.68275105 -44.0078125 73.80078125 C-52.1892923 74.15256478 -55.91757473 72.3598208 -61.9375 66.875 C-65.65685979 62.73057052 -65.52199607 58.63185965 -65.47265625 53.2890625 C-64.92349386 48.78469681 -62.91141928 45.91667546 -60.125 42.4375 C-59.361875 41.426875 -58.59875 40.41625 -57.8125 39.375 C-53.72457915 34.90680744 -49.18283918 31.06462866 -44.4375 27.3125 C-40.50927526 24.12745292 -37.166901 20.51035278 -33.875 16.6875 C-13.97454765 -6.09894869 -13.97454765 -6.09894869 0 0 Z " fill="#141414" transform="translate(76.125,13.5625)"/>
<path d="M0 0 C4.86831281 0.45286631 7.48559226 1.58321469 11 5 C13.55029676 8.52183839 13.47947994 11.75317769 13 16 C10.04740736 24.02232043 5.1358879 29.58225828 -0.9375 35.4375 C-2.11602539 36.61989258 -2.11602539 36.61989258 -3.31835938 37.82617188 C-8.77629113 43.19275749 -13.43208346 47.40704886 -21.4375 47.5 C-26.94414537 47.34266728 -30.17133297 45.91593009 -34 42 C-37.47518387 38.18850802 -37.74410415 33.97218383 -37.609375 28.98046875 C-35.85786383 20.41378273 -28.56322786 14.2237936 -22 9 C-21.67 8.34 -21.34 7.68 -21 7 C-20.34 7 -19.68 7 -19 7 C-18.02524941 10.49763446 -17.51898602 12.46581309 -18 16 C-20.59386534 20.05857369 -23.74769813 23.4635751 -27 27 C-28.40457737 29.80915474 -28.24895157 31.88810534 -28 35 C-27.02896212 37.46186579 -27.02896212 37.46186579 -25 39 C-21.22363519 39.67135374 -19.48333868 39.29000321 -16.1875 37.3125 C-12.84613545 34.88837278 -9.8299981 32.30715286 -6.8125 29.5 C-6.29236328 29.02691406 -5.77222656 28.55382812 -5.23632812 28.06640625 C-0.45983956 23.66203237 2.54907297 20.48158485 3.21484375 13.95703125 C2.84988639 10.63260151 0.40592228 9.11251712 -2 7 C-2 3 -2 3 0 0 Z " fill="#F6F6F6" transform="translate(50,38)"/>
<path d="M0 0 C4.52966583 2.47551505 7.16586374 5.37259122 8.8125 10.3125 C9.5822858 17.81791153 8.53223434 23.82190283 3.85546875 29.82421875 C-7.06681338 42.27227113 -7.06681338 42.27227113 -13.1875 44.3125 C-12.61087928 36.47045825 -11.03953756 32.43867521 -5.1640625 27.21484375 C-1.29820388 23.49414583 0.54113252 19.32837271 1.25 14.0625 C0.72915366 10.78860874 0.4070842 9.42059967 -2.1875 7.3125 C-8.50491029 6.48398717 -11.0152269 7.4253034 -16.1875 11.3125 C-18.52673214 13.39486587 -20.73865834 15.58332949 -22.9375 17.8125 C-23.51371094 18.38097656 -24.08992188 18.94945313 -24.68359375 19.53515625 C-25.23660156 20.09074219 -25.78960937 20.64632812 -26.359375 21.21875 C-26.8553418 21.71697266 -27.35130859 22.21519531 -27.86230469 22.72851562 C-30.17380263 25.49141147 -31.12654861 27.72736664 -31.5 31.3125 C-31.45326987 34.35289801 -31.45326987 34.35289801 -29.5625 36.375 C-29.10875 37.014375 -28.655 37.65375 -28.1875 38.3125 C-29.09728285 42.13358796 -29.86041667 43.09444445 -33.1875 45.3125 C-34.17225214 44.21331184 -35.15010473 43.1079398 -36.125 42 C-36.67027344 41.38511719 -37.21554688 40.77023438 -37.77734375 40.13671875 C-40.33809345 36.82405916 -40.35313042 33.61345801 -40.515625 29.54296875 C-39.39271301 21.90984079 -33.23935913 16.63656708 -28.1875 11.3125 C-27.42566406 10.48621094 -26.66382813 9.65992188 -25.87890625 8.80859375 C-18.51026411 1.0568333 -10.89393348 -4.93348189 0 0 Z " fill="#F6F6F6" transform="translate(76.1875,15.6875)"/>
<path d="M0 0 C2.5625 1.9375 2.5625 1.9375 4 5 C4.56343965 10.19946066 3.30740548 14.05992875 0.25 18.25 C-1.6247756 20.54289103 -3.45638321 22.40331539 -5.6875 24.375 C-8.98333968 28.11622342 -9.85814339 32.21905566 -11 37 C-11.33 37 -11.66 37 -12 37 C-11.93039063 35.80503906 -11.93039063 35.80503906 -11.859375 34.5859375 C-11.42509067 27.68350731 -11.42509067 27.68350731 -13.75 21.375 C-15.85102831 19.1572479 -17.11055267 17.90295229 -20 17 C-21.32 17 -22.64 17 -24 17 C-24.99 19.475 -24.99 19.475 -26 22 C-23.525 23.98 -23.525 23.98 -21 26 C-21.33 27.65 -21.66 29.3 -22 31 C-24.875 31.1875 -24.875 31.1875 -28 31 C-30.35620437 27.46569344 -30.48991613 26.16428713 -30 22 C-27.03540213 16.86671847 -23.20039758 12.89767293 -19 8.75 C-18.38382813 8.12609375 -17.76765625 7.5021875 -17.1328125 6.859375 C-16.53210937 6.26125 -15.93140625 5.663125 -15.3125 5.046875 C-14.77238281 4.50901367 -14.23226562 3.97115234 -13.67578125 3.41699219 C-9.53485102 -0.08445872 -5.28767535 -1.01644475 0 0 Z " fill="#161616" transform="translate(74,22)"/>
<path d="M0 0 C4.75389107 2.61604657 8.44795424 6.58340848 10.875 11.4375 C11.74721419 20.73158561 10.69735593 26.71489808 4.8515625 33.9375 C-5.77213015 46.12030113 -5.77213015 46.12030113 -12.625 48.8125 C-16.64316853 50.67807825 -18.3455802 52.68550294 -21.109375 56.046875 C-35.13570186 72.68275105 -35.13570186 72.68275105 -44.0078125 73.80078125 C-52.1892923 74.15256478 -55.91757473 72.3598208 -61.9375 66.875 C-65.65685979 62.73057052 -65.52199607 58.63185965 -65.47265625 53.2890625 C-64.92363941 48.78589065 -62.91269093 45.91445517 -60.125 42.4375 C-59.71765625 41.89351562 -59.3103125 41.34953125 -58.890625 40.7890625 C-56.01857028 37.11507043 -52.82449897 34.232677 -49.125 31.4375 C-48.465 31.4375 -47.805 31.4375 -47.125 31.4375 C-48.44978249 34.48320091 -49.73004271 36.14128203 -52.375 38.125 C-57.2998593 42.25486105 -61.51057449 46.76605577 -62.6015625 53.28515625 C-62.7509828 58.33148718 -62.65399593 62.55560448 -59.125 66.4375 C-54.6870034 70.54264685 -50.8866375 70.92135275 -45.1015625 71.06640625 C-37.35202887 69.4290376 -31.74976335 63.53618537 -26.375 58.0625 C-25.72917969 57.42828125 -25.08335938 56.7940625 -24.41796875 56.140625 C-20.49052653 52.18898909 -17.66375674 48.39961545 -15.125 43.4375 C-14.135 44.0975 -13.145 44.7575 -12.125 45.4375 C-3.80264817 40.52944636 4.61605955 33.02876927 7.44921875 23.5078125 C8.65963888 17.62228344 8.6457618 12.07527411 5.26953125 6.9453125 C1.72301872 3.11070791 -2.56110451 1.66091364 -7.625 0.9375 C-16.00259751 2.13429964 -21.32123073 7.06362527 -27 13 C-27.66257813 13.67224609 -28.32515625 14.34449219 -29.0078125 15.03710938 C-31.6654289 17.75684486 -34.00844176 20.26266264 -36.125 23.4375 C-37.115 23.1075 -38.105 22.7775 -39.125 22.4375 C-35.93037165 18.91936499 -32.72312917 15.41369822 -29.49658203 11.92480469 C-28.375075 10.70867425 -27.262417 9.48438849 -26.15234375 8.2578125 C-18.86781597 0.50831486 -10.52886129 -4.5951387 0 0 Z " fill="#212121" transform="translate(76.125,13.5625)"/>
<path d="M0 0 C1.9375 1.0625 1.9375 1.0625 3 3 C3.53928203 7.08313535 3.31677908 9.379113 1.4375 13.0625 C-1.40602283 16.48930957 -4.51869885 19.2423401 -8 22 C-8.33 21.113125 -8.66 20.22625 -9 19.3125 C-11.58170454 15.03655185 -14.67924333 13.31945607 -19 11 C-17.35549209 9.30565852 -15.69037833 7.64779953 -14 6 C-13.45730469 5.44957031 -12.91460937 4.89914063 -12.35546875 4.33203125 C-8.33314863 0.50946517 -5.78342995 -1.00097826 0 0 Z " fill="#FAFAFA" transform="translate(72,25)"/>
<path d="M0 0 C0.721875 0.7425 1.44375 1.485 2.1875 2.25 C4.68592573 4.69290515 7.23643202 6.8681047 10 9 C8.44638359 12.93823694 5.96387839 15.06298692 2.75 17.75 C1.81671875 18.54921875 0.8834375 19.3484375 -0.078125 20.171875 C-3.41973766 22.26261661 -5.13083636 22.63393077 -9 22 C-11.35407433 18.4688885 -11.52253352 17.15977662 -11 13 C-9.1015625 10.078125 -9.1015625 10.078125 -6.625 7.25 C-5.81289063 6.30640625 -5.00078125 5.3628125 -4.1640625 4.390625 C-2.81040208 2.89524562 -1.42628119 1.42628119 0 0 Z " fill="#F6F6F6" transform="translate(34,54)"/>
<path d="M0 0 C4.75389107 2.61604657 8.44795424 6.58340848 10.875 11.4375 C11.76814081 20.95457421 10.05565105 26.66652342 4.875 34.4375 C3.885 34.1075 2.895 33.7775 1.875 33.4375 C2.22433594 32.90640625 2.57367188 32.3753125 2.93359375 31.828125 C3.38863281 31.12171875 3.84367187 30.4153125 4.3125 29.6875 C4.99119141 28.64335938 4.99119141 28.64335938 5.68359375 27.578125 C8.31502227 22.8501813 8.4924857 17.73534829 7.875 12.4375 C6.48539057 7.90578008 4.18728745 5.29065866 0.0625 3 C-4.37372296 1.1057902 -8.26402221 0.4003282 -12.93994141 2.09545898 C-18.6646914 4.79259854 -22.65289419 8.45569685 -27 13 C-27.66257812 13.67224609 -28.32515625 14.34449219 -29.0078125 15.03710938 C-31.6654289 17.75684486 -34.00844176 20.26266264 -36.125 23.4375 C-37.115 23.1075 -38.105 22.7775 -39.125 22.4375 C-35.93037165 18.91936499 -32.72312917 15.41369822 -29.49658203 11.92480469 C-28.375075 10.70867425 -27.262417 9.48438849 -26.15234375 8.2578125 C-18.86781597 0.50831486 -10.52886129 -4.5951387 0 0 Z " fill="#1E1E1E" transform="translate(76.125,13.5625)"/>
<path d="M0 0 C-1.32478249 3.04570091 -2.60504271 4.70378203 -5.25 6.6875 C-10.1748593 10.81736105 -14.38557449 15.32855577 -15.4765625 21.84765625 C-15.62551882 26.87831751 -15.58354206 31.19248657 -12 35 C-6.86982767 39.12772486 -2.53951901 40.64966862 4 41 C4 41.33 4 41.66 4 42 C-2.57297098 42.4676422 -6.77838479 42.49301774 -12 38 C-15.67486928 34.65178577 -17.70305408 32.62585038 -18.2734375 27.58203125 C-18.532237 20.52476786 -17.4027651 16.49136087 -13 11 C-12.59265625 10.45601562 -12.1853125 9.91203125 -11.765625 9.3515625 C-4.4552665 0 -4.4552665 0 0 0 Z " fill="#292929" transform="translate(29,45)"/>
<path d="M0 0 C-1.45602357 3.25031523 -3.32062135 5.67233368 -5.625 8.375 C-7.9952673 11.35996317 -8.94161915 12.59863168 -9.5 16.4375 C-9.1232277 18.97658116 -9.1232277 18.97658116 -8 21 C-4.16024296 21.39134895 -2.40487064 21.26133058 0.88671875 19.13671875 C2.27310547 17.92435547 2.27310547 17.92435547 3.6875 16.6875 C4.61949219 15.88699219 5.55148438 15.08648437 6.51171875 14.26171875 C8.3960781 12.54893372 10.23013043 10.82906253 12 9 C11.73888858 12.59187413 11.16521162 13.83558394 8.56640625 16.421875 C7.07947266 17.57429688 7.07947266 17.57429688 5.5625 18.75 C4.57378906 19.52859375 3.58507812 20.3071875 2.56640625 21.109375 C-1.18775547 23.87499794 -3.30169177 24.56379699 -8 24 C-10.83944877 21.45944057 -11.86005025 19.8222048 -12.5 16.0625 C-11.73399799 11.37073767 -5.56557596 0 0 0 Z " fill="#131313" transform="translate(33,54)"/>
<path d="M0 0 C2.5625 1.9375 2.5625 1.9375 4 5 C4.57902485 10.34328193 3.22779748 14.16007097 0.0625 18.4375 C-1.55204075 20.40113064 -3.20142768 22.20142768 -5 24 C-5.99 23.67 -6.98 23.34 -8 23 C-7.50628906 22.44570313 -7.01257813 21.89140625 -6.50390625 21.3203125 C-5.86324219 20.59585938 -5.22257812 19.87140625 -4.5625 19.125 C-3.92441406 18.40570313 -3.28632812 17.68640625 -2.62890625 16.9453125 C0.39410351 13.33509941 0.24927854 10.6531995 0 6 C-1.93501064 3.61995935 -1.93501064 3.61995935 -5.4375 3.8125 C-8.96225747 3.83968083 -8.96225747 3.83968083 -12 5 C-12 4.01 -12 3.02 -12 2 C-8.27867507 -0.48088329 -4.32047689 -0.83052112 0 0 Z " fill="#1E1E1E" transform="translate(74,22)"/>
<path d="M0 0 C0.66 0.33 1.32 0.66 2 1 C1.67257813 1.69480469 1.34515625 2.38960937 1.0078125 3.10546875 C-0.12662831 6.36368828 -0.20056055 8.87449502 -0.125 12.3125 C-0.09792969 13.91544922 -0.09792969 13.91544922 -0.0703125 15.55078125 C-0.04710937 16.35902344 -0.02390625 17.16726562 0 18 C-1.65 17.67 -3.3 17.34 -5 17 C-5.33 14.03 -5.66 11.06 -6 8 C-6.99 7.67 -7.98 7.34 -9 7 C-6.04399553 4.50381844 -3.22113035 2.14742023 0 0 Z " fill="#080808" transform="translate(37,37)"/>
<path d="M0 0 C5.59090909 2.43083004 5.59090909 2.43083004 7.4375 5 C8 7 8 7 7 10 C4.125 10.1875 4.125 10.1875 1 10 C-1.29404844 6.55892734 -1.26293056 5.03160191 -1 1 C-0.67 0.67 -0.34 0.34 0 0 Z " fill="#212121" transform="translate(45,43)"/>
<path d="M0 0 C0.66 0 1.32 0 2 0 C-0.57739087 6.11444856 -6.2591623 10.60161342 -12.0625 13.5625 C-15.95164845 14.14173488 -19.12710584 13.66774037 -23 13 C-23 12.67 -23 12.34 -23 12 C-22.443125 11.98582031 -21.88625 11.97164062 -21.3125 11.95703125 C-11.70668684 11.35666793 -6.49081225 6.6453554 0 0 Z " fill="#2F2F2F" transform="translate(48,73)"/>
<path d="M0 0 C0.33 0 0.66 0 1 0 C1.10957031 0.59167969 1.21914062 1.18335937 1.33203125 1.79296875 C2.6561197 8.39188112 3.95709391 12.80263611 9.6875 16.75 C13.80834029 19.18886466 17.25249296 19.74566927 22 20 C22 20.33 22 20.66 22 21 C15.42702902 21.4676422 11.22161521 21.49301774 6 17 C1.21276596 12.63829787 1.21276596 12.63829787 0 9 C-0.06740865 7.43881572 -0.08514456 5.8749748 -0.0625 4.3125 C-0.05347656 3.50425781 -0.04445313 2.69601563 -0.03515625 1.86328125 C-0.02355469 1.24839844 -0.01195312 0.63351563 0 0 Z " fill="#121212" transform="translate(11,66)"/>
<path d="M0 0 C0.33 1.32 0.66 2.64 1 4 C-0.59887554 5.48488441 -2.20428905 6.96273145 -3.8125 8.4375 C-5.15248047 9.67306641 -5.15248047 9.67306641 -6.51953125 10.93359375 C-9 13 -9 13 -12 14 C-12 13.01 -12 12.02 -12 11 C-9.8828125 9.0625 -9.8828125 9.0625 -7.125 7 C-4.1013584 4.72580802 -2.11214316 3.16821474 0 0 Z " fill="#272727" transform="translate(44,63)"/>
<path d="M0 0 C1.65 0 3.3 0 5 0 C4.01 1.485 4.01 1.485 3 3 C2.41162754 4.71383721 1.87280046 6.44519841 1.375 8.1875 C1.11460938 9.08855469 0.85421875 9.98960938 0.5859375 10.91796875 C0.29589844 11.94857422 0.29589844 11.94857422 0 13 C-0.33 13 -0.66 13 -1 13 C-0.67 8.71 -0.34 4.42 0 0 Z " fill="#141414" transform="translate(63,46)"/>
<path d="M0 0 C-1.40976705 3.03852705 -3.08870228 5.5939595 -5.125 8.25 C-5.66382813 8.95640625 -6.20265625 9.6628125 -6.7578125 10.390625 C-7.16773438 10.92171875 -7.57765625 11.4528125 -8 12 C-8.66 11.67 -9.32 11.34 -10 11 C-8.64763423 8.06120516 -7.10057341 5.70767089 -5 3.25 C-4.484375 2.63640625 -3.96875 2.0228125 -3.4375 1.390625 C-2 0 -2 0 0 0 Z " fill="#202020" transform="translate(33,54)"/>
<path d="M0 0 C2.1875 -0.375 2.1875 -0.375 5 0 C7.19925447 1.82787641 8.37675026 3.56512539 10 6 C9.67 6.99 9.34 7.98 9 9 C8.443125 8.2575 7.88625 7.515 7.3125 6.75 C5.06972822 4.08292005 2.77925025 2.08443768 0 0 Z " fill="#262626" transform="translate(54,38)"/>
<path d="M0 0 C1.9375 0.6875 1.9375 0.6875 4 2 C4.75 4.625 4.75 4.625 5 7 C3.0625 6.3125 3.0625 6.3125 1 5 C0.25 2.375 0.25 2.375 0 0 Z " fill="#EDEDED" transform="translate(46,46)"/>
<path d="M0 0 C0 0.66 0 1.32 0 2 C-1.42578125 3.32421875 -1.42578125 3.32421875 -3.3125 4.6875 C-3.92738281 5.14511719 -4.54226562 5.60273438 -5.17578125 6.07421875 C-5.77777344 6.37972656 -6.37976562 6.68523438 -7 7 C-7.99 6.67 -8.98 6.34 -10 6 C-8.71283353 4.99421411 -7.42011342 3.99553202 -6.125 3 C-5.40570313 2.443125 -4.68640625 1.88625 -3.9453125 1.3125 C-2 0 -2 0 0 0 Z " fill="#191919" transform="translate(62,14)"/>
<path d="M0 0 C0.66 0.66 1.32 1.32 2 2 C-0.97 2.66 -3.94 3.32 -7 4 C-7 3.01 -7 2.02 -7 1 C-3.375 -1.125 -3.375 -1.125 0 0 Z " fill="#2E2E2E" transform="translate(69,23)"/>
</svg>
